<svg xmlns="http://www.w3.org/2000/svg" width="670" height="280"><path d="m 15.717567,826.90976 0,260.13534" fill="none" stroke="#4c4c4c" stroke-width="1.353" transform="translate(13.517 -812.34)"/><path d="m -11.234078,1061.6539 317.018068,0" fill="none" stroke="#4c4c4c" stroke-width="1.353" transform="translate(13.517 -812.34)"/><text style="line-height:125%;-inkscape-font-specification:Sans Bold" x="2.232" y="1077.237" font-size="29.264" font-weight="700" letter-spacing="0" word-spacing="0" fill="#4c4c4c" font-family="Sans" transform="translate(13.517 -812.34)"><tspan x="2.232" y="1077.237" style="-inkscape-font-specification:Sans Bold" font-size="16.838">0</tspan></text><text y="1079.713" x="60.319" style="line-height:125%;-inkscape-font-specification:Sans Bold" font-size="29.264" font-weight="700" letter-spacing="0" word-spacing="0" fill="#4c4c4c" font-family="Sans" transform="translate(13.517 -812.34)"><tspan style="-inkscape-font-specification:Sans Bold" y="1079.713" x="60.319" font-size="16.838">a</tspan></text><path d="M 42.456465,1021.7731 C 104.85461,855.40607 265.17702,857.25069 265.17702,857.25069" fill="none" stroke="#e36a5c" stroke-width="2.97" stroke-linecap="round" stroke-linejoin="round" transform="translate(13.517 -812.34)"/><text y="1075.18" x="290.225" style="line-height:125%" font-size="29.264" font-weight="400" letter-spacing="0" word-spacing="0" fill="#4c4c4c" font-family="Sans" transform="translate(13.517 -812.34)"><tspan style="-inkscape-font-specification:Sans" y="1075.18" x="290.225" font-size="16.838">x</tspan></text><text style="line-height:125%" x="2.232" y="842.935" font-size="29.264" font-weight="400" letter-spacing="0" word-spacing="0" fill="#4c4c4c" font-family="Sans" transform="translate(13.517 -812.34)"><tspan x="2.232" y="842.935" style="-inkscape-font-specification:Sans" font-size="16.838">y</tspan></text><text style="line-height:125%;-inkscape-font-specification:Sans Bold" x="236.158" y="1079.713" font-size="29.264" font-weight="700" letter-spacing="0" word-spacing="0" fill="#4c4c4c" font-family="Sans" transform="translate(13.517 -812.34)"><tspan x="236.158" y="1079.713" style="-inkscape-font-specification:Sans Bold" font-size="16.838">b</tspan></text><path d="m 35.55091,23.268327 -16.806124,0 8.403062,-14.5545304 z" transform="matrix(.52887 0 0 .52887 14.816 6.822)" fill="#4c4c4c"/><path transform="matrix(0 .52887 -.52887 0 326.867 234.954)" d="m 35.55091,23.268327 -16.806124,0 8.403062,-14.5545304 z" fill="#4c4c4c"/><g fill="none" stroke="#0098a1" stroke-width="1.5"><path d="m 63.782921,1063.8854 0,-99.4291 22.822981,0 0,99.4291" transform="matrix(1.0862 0 0 1.0862 10.664 -906.874)"/><path d="m 75.029097,964.68106 0,99.37374" stroke-dasharray="3,1.5" transform="matrix(1.0862 0 0 1.0862 10.664 -906.874)"/></g><path d="m 134.28571,35.535713 a 3.0357144,3.0357144 0 1 1 -6.07142,0 3.0357144,3.0357144 0 1 1 6.07142,0 z" transform="matrix(1.17589 0 0 1.17589 -74.386 207.21)" fill="#e36a5c" stroke="#4c4c4c" stroke-width="1.92"/><g fill="none" stroke="#0098a1" stroke-width="1.5"><path d="m 63.782921,1063.8854 0,-126.21481 22.822981,0 0,126.21481" transform="matrix(1.0862 0 0 1.0862 35.474 -906.874)"/><path d="m 75.029097,938.07392 0,125.98088" stroke-dasharray="3,1.5" transform="matrix(1.0862 0 0 1.0862 35.474 -906.874)"/></g><g fill="none" stroke="#0098a1" stroke-width="1.5"><path d="m 63.782921,1063.8854 0,-144.6641 22.822981,0 0,144.6641" transform="matrix(1.0862 0 0 1.0862 60.244 -906.874)"/><path d="m 75.029097,919.41279 0,144.64201" stroke-dasharray="3,1.5" transform="matrix(1.0862 0 0 1.0862 60.244 -906.874)"/></g><g fill="none" stroke="#0098a1" stroke-width="1.5"><path d="m 63.782921,1063.8854 0,-159.02731 22.822981,0 0,159.02731" transform="matrix(1.0862 0 0 1.0862 85.013 -906.874)"/><path d="m 75.029097,905.35071 0,158.70409" stroke-dasharray="3,1.5" transform="matrix(1.0862 0 0 1.0862 85.013 -906.874)"/></g><g fill="none" stroke="#0098a1" stroke-width="1.5"><path d="m 63.782921,1063.8854 0,-169.5251 22.822981,0 0,169.5251" transform="matrix(1.0862 0 0 1.0862 109.782 -906.874)"/><path d="m 75.029097,894.51109 0,169.54371" stroke-dasharray="3,1.5" transform="matrix(1.0862 0 0 1.0862 109.782 -906.874)"/></g><g fill="none" stroke="#0098a1" stroke-width="1.5"><path d="m 63.782921,1063.8854 0,-178.17453 22.822981,0 0,178.17453" transform="matrix(1.0862 0 0 1.0862 134.551 -906.874)"/><path d="m 75.029097,886.17733 0,177.87747" stroke-dasharray="3,1.5" transform="matrix(1.0862 0 0 1.0862 134.551 -906.874)"/></g><g fill="none" stroke="#0098a1" stroke-width="1.5"><path d="m 63.782921,1063.8854 0,-183.98267 22.822981,0 0,183.98267" transform="matrix(1.0862 0 0 1.0862 159.339 -906.874)"/><path d="m 75.029097,880.21678 0,183.83802" stroke-dasharray="3,1.5" transform="matrix(1.0862 0 0 1.0862 159.339 -906.874)"/></g><path transform="matrix(1.17589 0 0 1.17589 98.92 207.21)" d="m 134.28571,35.535713 a 3.0357144,3.0357144 0 1 1 -6.07142,0 3.0357144,3.0357144 0 1 1 6.07142,0 z" fill="#e36a5c" stroke="#4c4c4c" stroke-width="1.92"/><text y="913.187" x="78.403" style="line-height:125%" font-size="25.445" font-weight="400" letter-spacing="0" word-spacing="0" fill="#4c4c4c" font-family="Sans" transform="translate(13.517 -812.34)"><tspan style="-inkscape-font-specification:Sans" y="913.187" x="78.403" font-size="14.641">x</tspan></text><text style="line-height:125%" x="85.854" y="915.273" font-size="25.445" font-weight="400" letter-spacing="0" word-spacing="0" fill="#4c4c4c" font-family="Sans" transform="translate(13.517 -812.34)"><tspan x="85.854" y="915.273" style="-inkscape-font-specification:Sans" font-size="8.5">1</tspan></text><path d="m 84.216413,81.657973 -12.616801,0 6.3084,-10.926471 z" transform="matrix(.79237 0 0 .79237 23.495 35.605)" fill="none" stroke="#4c4c4c" stroke-width="1.5"/><path d="m 68.942568,919.95457 18.221752,0" fill="none" stroke="#4c4c4c" stroke-width="1.038" transform="translate(13.517 -812.34)"/><path transform="matrix(0 .33237 .33237 0 76.635 98.57)" d="m 35.55091,23.268327 -16.806124,0 8.403062,-14.5545304 z" fill="#4c4c4c"/><path d="m 90.311674,917.14119 0,5.60131" fill="none" stroke="#4c4c4c" stroke-width=".634" transform="translate(13.517 -812.34)"/><path d="m 35.55091,23.268327 -16.806124,0 8.403062,-14.5545304 z" transform="matrix(0 .33237 -.33237 0 106.42 98.57)" fill="#4c4c4c"/><path d="m 65.704744,917.14119 0,5.60131" fill="none" stroke="#4c4c4c" stroke-width=".634" transform="translate(13.517 -812.34)"/><text style="line-height:125%" x="103.228" y="893.163" font-size="25.445" font-weight="400" letter-spacing="0" word-spacing="0" fill="#4c4c4c" font-family="Sans" transform="translate(13.517 -812.34)"><tspan x="103.228" y="893.163" style="-inkscape-font-specification:Sans" font-size="14.641">x</tspan></text><text y="895.249" x="110.679" style="line-height:125%" font-size="25.445" font-weight="400" letter-spacing="0" word-spacing="0" fill="#4c4c4c" font-family="Sans" transform="translate(13.517 -812.34)"><tspan style="-inkscape-font-specification:Sans" y="895.249" x="110.679" font-size="8.5">2</tspan></text><path transform="matrix(.79237 0 0 .79237 48.32 15.581)" d="m 84.216413,81.657973 -12.616801,0 6.3084,-10.926471 z" fill="none" stroke="#4c4c4c" stroke-width="1.5"/><path d="m 93.767299,899.93021 18.221751,0" fill="none" stroke="#4c4c4c" stroke-width="1.038" transform="translate(13.517 -812.34)"/><path d="m 35.55091,23.268327 -16.806124,0 8.403062,-14.5545304 z" transform="matrix(0 .33237 .33237 0 101.46 78.546)" fill="#4c4c4c"/><path d="m 115.13641,897.11682 0,5.60131" fill="none" stroke="#4c4c4c" stroke-width=".634" transform="translate(13.517 -812.34)"/><path transform="matrix(0 .33237 -.33237 0 131.245 78.546)" d="m 35.55091,23.268327 -16.806124,0 8.403062,-14.5545304 z" fill="#4c4c4c"/><path d="m 90.529477,897.11682 0,5.60131" fill="none" stroke="#4c4c4c" stroke-width=".634" transform="translate(13.517 -812.34)"/><text y="846.543" x="227.913" style="line-height:125%" font-size="25.445" font-weight="400" letter-spacing="0" word-spacing="0" fill="#4c4c4c" font-family="Sans" transform="translate(13.517 -812.34)"><tspan style="-inkscape-font-specification:Sans" y="846.543" x="227.913" font-size="14.641">x</tspan></text><text style="line-height:125%" x="235.365" y="848.629" font-size="25.445" font-weight="400" letter-spacing="0" word-spacing="0" fill="#4c4c4c" font-family="Sans" transform="translate(13.517 -812.34)"><tspan x="235.365" y="848.629" style="-inkscape-font-specification:Sans" font-size="8.5">n</tspan></text><path d="m 84.216413,81.657973 -12.616801,0 6.3084,-10.926471 z" transform="matrix(.79237 0 0 .79237 173.005 -31.039)" fill="none" stroke="#4c4c4c" stroke-width="1.5"/><path d="m 218.45285,853.31029 18.22175,0" fill="none" stroke="#4c4c4c" stroke-width="1.038" transform="translate(13.517 -812.34)"/><path transform="matrix(0 .33237 .33237 0 226.145 31.927)" d="m 35.55091,23.268327 -16.806124,0 8.403062,-14.5545304 z" fill="#4c4c4c"/><path d="m 239.82195,850.4969 0,5.60133" fill="none" stroke="#4c4c4c" stroke-width=".634" transform="translate(13.517 -812.34)"/><path d="m 35.55091,23.268327 -16.806124,0 8.403062,-14.5545304 z" transform="matrix(0 .33237 -.33237 0 255.93 31.927)" fill="#4c4c4c"/><path d="m 215.21503,850.4969 0,5.60133" fill="none" stroke="#4c4c4c" stroke-width=".634" transform="translate(13.517 -812.34)"/><text y="840.368" x="450.966" style="text-align:start" font-size="400" font-weight="400" font-family="Times New Roman" transform="matrix(.04262 0 0 .04262 70.22 225.815)" fill="#4c4c4c"><tspan style="text-align:center" y="840.368" x="450.966" text-anchor="middle">ε</tspan></text><text y="1077.039" x="78.484" style="line-height:125%" font-size="25.445" font-weight="400" letter-spacing="0" word-spacing="0" fill="#4c4c4c" font-family="Sans" transform="translate(13.517 -812.34)"><tspan style="-inkscape-font-specification:Sans" y="1077.039" x="78.484" font-size="8.5">1</tspan></text><text style="text-align:start" x="450.966" y="840.368" font-size="400" font-weight="400" font-family="Times New Roman" transform="matrix(.04262 0 0 .04262 96.29 225.815)" fill="#4c4c4c"><tspan x="450.966" y="840.368" style="text-align:center" text-anchor="middle">ε</tspan></text><text style="line-height:125%" x="104.552" y="1077.039" font-size="25.445" font-weight="400" letter-spacing="0" word-spacing="0" fill="#4c4c4c" font-family="Sans" transform="translate(13.517 -812.34)"><tspan x="104.552" y="1077.039" style="-inkscape-font-specification:Sans" font-size="8.5">2</tspan></text><text y="840.368" x="450.966" style="text-align:start" font-size="400" font-weight="400" font-family="Times New Roman" transform="matrix(.04262 0 0 .04262 220.116 225.815)" fill="#4c4c4c"><tspan style="text-align:center" y="840.368" x="450.966" text-anchor="middle">ε</tspan></text><text y="1077.039" x="228.379" style="line-height:125%" font-size="25.445" font-weight="400" letter-spacing="0" word-spacing="0" fill="#4c4c4c" font-family="Sans" transform="translate(13.517 -812.34)"><tspan style="-inkscape-font-specification:Sans" y="1077.039" x="228.379" font-size="8.5">n</tspan></text><path d="m 361.12857,826.90976 0,260.13534" fill="none" stroke="#4c4c4c" stroke-width="1.353" transform="translate(13.517 -812.34)"/><path d="m 334.17691,1061.6539 317.01806,0" fill="none" stroke="#4c4c4c" stroke-width="1.353" transform="translate(13.517 -812.34)"/><text y="1077.237" x="347.643" style="line-height:125%;-inkscape-font-specification:Sans Bold" font-size="29.264" font-weight="700" letter-spacing="0" word-spacing="0" fill="#4c4c4c" font-family="Sans" transform="translate(13.517 -812.34)"><tspan style="-inkscape-font-specification:Sans Bold" y="1077.237" x="347.643" font-size="16.838">0</tspan></text><text style="line-height:125%;-inkscape-font-specification:Sans Bold" x="405.73" y="1079.713" font-size="29.264" font-weight="700" letter-spacing="0" word-spacing="0" fill="#4c4c4c" font-family="Sans" transform="translate(13.517 -812.34)"><tspan x="405.73" y="1079.713" style="-inkscape-font-specification:Sans Bold" font-size="16.838">a</tspan></text><path d="M 387.86745,1021.7731 C 450.2656,855.40607 610.58801,857.25069 610.58801,857.25069" fill="none" stroke="#e36a5c" stroke-width="2.97" stroke-linecap="round" stroke-linejoin="round" transform="translate(13.517 -812.34)"/><text style="line-height:125%" x="635.636" y="1075.18" font-size="29.264" font-weight="400" letter-spacing="0" word-spacing="0" fill="#4c4c4c" font-family="Sans" transform="translate(13.517 -812.34)"><tspan x="635.636" y="1075.18" style="-inkscape-font-specification:Sans" font-size="16.838">x</tspan></text><text y="842.935" x="347.643" style="line-height:125%" font-size="29.264" font-weight="400" letter-spacing="0" word-spacing="0" fill="#4c4c4c" font-family="Sans" transform="translate(13.517 -812.34)"><tspan style="-inkscape-font-specification:Sans" y="842.935" x="347.643" font-size="16.838">y</tspan></text><text y="1079.713" x="583.741" style="line-height:125%;-inkscape-font-specification:Sans Bold" font-size="29.264" font-weight="700" letter-spacing="0" word-spacing="0" fill="#4c4c4c" font-family="Sans" transform="translate(13.517 -812.34)"><tspan style="-inkscape-font-specification:Sans Bold" y="1079.713" x="583.741" font-size="16.838">b</tspan></text><path transform="matrix(.52887 0 0 .52887 360.227 6.822)" d="m 35.55091,23.268327 -16.806124,0 8.403062,-14.5545304 z" fill="#4c4c4c"/><path d="m 35.55091,23.268327 -16.806124,0 8.403062,-14.5545304 z" transform="matrix(0 .52887 -.52887 0 672.278 234.954)" fill="#4c4c4c"/><g fill="none" stroke="#0098a1" stroke-width="1.5"><path d="m 381.78292,1063.8854 0,-95.76839 17.89849,0 0,95.76839" transform="matrix(1.0862 0 0 1.0862 10.664 -906.874)"/><path d="m 390.73894,968.7882 0,94.8562" stroke-dasharray="3,1.5" transform="matrix(1.0862 0 0 1.0862 10.664 -906.874)"/></g><path transform="matrix(1.17589 0 0 1.17589 271.025 207.21)" d="m 134.28571,35.535713 a 3.0357144,3.0357144 0 1 1 -6.07142,0 3.0357144,3.0357144 0 1 1 6.07142,0 z" fill="#e36a5c" stroke="#4c4c4c" stroke-width="1.92"/><text style="line-height:125%" x="421.342" y="925.37" font-size="23.024" font-weight="400" letter-spacing="0" word-spacing="0" fill="#4c4c4c" font-family="Sans" transform="translate(13.517 -812.34)"><tspan x="421.342" y="925.37" style="-inkscape-font-specification:Sans" font-size="13.248">x</tspan></text><text y="927.258" x="428.085" style="line-height:125%" font-size="23.024" font-weight="400" letter-spacing="0" word-spacing="0" fill="#4c4c4c" font-family="Sans" transform="translate(13.517 -812.34)"><tspan style="-inkscape-font-specification:Sans" y="927.258" x="428.085" font-size="7.691">1</tspan></text><path transform="matrix(.717 0 0 .717 372.943 53.995)" d="m 84.216413,81.657973 -12.616801,0 6.3084,-10.926471 z" fill="none" stroke="#4c4c4c" stroke-width="1.5"/><path d="m 413.6446,931.09419 14.55373,0" fill="none" stroke="#4c4c4c" stroke-width=".829" transform="translate(13.517 -812.34)"/><path d="m 35.55091,23.268327 -16.806124,0 8.403062,-14.5545304 z" transform="matrix(0 .26547 .26547 0 422.51 111.531)" fill="#4c4c4c"/><path d="m 430.7121,928.84714 0,4.47378" fill="none" stroke="#4c4c4c" stroke-width=".507" transform="translate(13.517 -812.34)"/><path transform="matrix(0 .26547 -.26547 0 446.299 111.531)" d="m 35.55091,23.268327 -16.806124,0 8.403062,-14.5545304 z" fill="#4c4c4c"/><path d="m 411.05525,928.78426 0,4.5333" fill="none" stroke="#4c4c4c" stroke-width=".513" transform="translate(13.517 -812.34)"/><text style="text-align:start" x="450.966" y="840.368" font-size="400" font-weight="400" font-family="Times New Roman" transform="matrix(.04262 0 0 .04262 414.809 225.815)" fill="#4c4c4c"><tspan x="450.966" y="840.368" style="text-align:center" text-anchor="middle">ε</tspan></text><text style="line-height:125%" x="423.072" y="1077.039" font-size="25.445" font-weight="400" letter-spacing="0" word-spacing="0" fill="#4c4c4c" font-family="Sans" transform="translate(13.517 -812.34)"><tspan x="423.072" y="1077.039" style="-inkscape-font-specification:Sans" font-size="8.5">1</tspan></text><text y="840.368" x="450.966" style="text-align:start" font-size="400" font-weight="400" font-family="Times New Roman" transform="matrix(.04262 0 0 .04262 434.909 225.815)" fill="#4c4c4c"><tspan style="text-align:center" y="840.368" x="450.966" text-anchor="middle">ε</tspan></text><text y="1077.039" x="443.172" style="line-height:125%" font-size="25.445" font-weight="400" letter-spacing="0" word-spacing="0" fill="#4c4c4c" font-family="Sans" transform="translate(13.517 -812.34)"><tspan style="-inkscape-font-specification:Sans" y="1077.039" x="443.172" font-size="8.5">2</tspan></text><text style="text-align:start" x="450.966" y="840.368" font-size="400" font-weight="400" font-family="Times New Roman" transform="matrix(.04262 0 0 .04262 570.19 225.815)" fill="#4c4c4c"><tspan x="450.966" y="840.368" style="text-align:center" text-anchor="middle">ε</tspan></text><text style="line-height:125%" x="578.454" y="1077.039" font-size="25.445" font-weight="400" letter-spacing="0" word-spacing="0" fill="#4c4c4c" font-family="Sans" transform="translate(13.517 -812.34)"><tspan x="578.454" y="1077.039" style="-inkscape-font-specification:Sans" font-size="8.5">n</tspan></text><g fill="none" stroke="#0098a1" stroke-width="1.5"><path d="m 381.78292,1063.8854 0,-116.83981 17.89849,0 0,116.83981" transform="matrix(1.0862 0 0 1.0862 30.06 -906.874)"/><path d="m 390.73894,947.35963 0,116.28477" stroke-dasharray="3,1.5" transform="matrix(1.0862 0 0 1.0862 30.06 -906.874)"/></g><g fill="none" stroke="#0098a1" stroke-width="1.5"><path d="m 381.78292,1063.8854 0,-134.16124 17.89849,0 0,134.16124" transform="matrix(1.0862 0 0 1.0862 49.515 -906.874)"/><path d="m 390.73894,930.12749 0,133.51691" stroke-dasharray="3,1.5" transform="matrix(1.0862 0 0 1.0862 49.515 -906.874)"/></g><g fill="none" stroke="#0098a1" stroke-width="1.5"><path d="m 381.78292,1063.8854 0,-148.00053 17.89849,0 0,148.00053" transform="matrix(1.0862 0 0 1.0862 69.067 -906.874)"/><path d="m 390.73894,915.84177 0,147.80263" stroke-dasharray="3,1.5" transform="matrix(1.0862 0 0 1.0862 69.067 -906.874)"/></g><g fill="none" stroke="#0098a1" stroke-width="1.5"><path d="m 381.78292,1063.8854 0,-158.98267 17.89849,0 0,158.98267" transform="matrix(1.0862 0 0 1.0862 88.619 -906.874)"/><path d="m 390.73894,904.68106 0,158.96334" stroke-dasharray="3,1.5" transform="matrix(1.0862 0 0 1.0862 88.619 -906.874)"/></g><g fill="none" stroke="#0098a1" stroke-width="1.5"><path d="m 381.78292,1063.8854 0,-168.26839 17.89849,0 0,168.26839" transform="matrix(1.0862 0 0 1.0862 108.17 -906.874)"/><path d="m 390.73894,895.84177 0,167.80263" stroke-dasharray="3,1.5" transform="matrix(1.0862 0 0 1.0862 108.17 -906.874)"/></g><g fill="none" stroke="#0098a1" stroke-width="1.5"><path d="m 381.78292,1063.8854 0,-175.14339 17.89849,0 0,175.14339" transform="matrix(1.0862 0 0 1.0862 127.722 -906.874)"/><path d="m 390.73894,888.7882 0,174.8562" stroke-dasharray="3,1.5" transform="matrix(1.0862 0 0 1.0862 127.722 -906.874)"/></g><g fill="none" stroke="#0098a1" stroke-width="1.5"><path d="m 381.78292,1063.8854 0,-180.49384 17.89849,0 0,180.49384" transform="matrix(1.0862 0 0 1.0862 147.273 -906.874)"/><path d="m 390.73894,883.36378 0,180.28062" stroke-dasharray="3,1.5" transform="matrix(1.0862 0 0 1.0862 147.273 -906.874)"/></g><g fill="none" stroke="#0098a1" stroke-width="1.5"><path d="m 381.78292,1063.8854 0,-184.53445 17.89849,0 0,184.53445" transform="matrix(1.0862 0 0 1.0862 166.825 -906.874)"/><path d="m 390.73894,879.1969 0,184.4475" stroke-dasharray="3,1.5" transform="matrix(1.0862 0 0 1.0862 166.825 -906.874)"/></g><path d="m 134.28571,35.535713 a 3.0357144,3.0357144 0 1 1 -6.07142,0 3.0357144,3.0357144 0 1 1 6.07142,0 z" transform="matrix(1.17589 0 0 1.17589 446.504 207.21)" fill="#e36a5c" stroke="#4c4c4c" stroke-width="1.92"/><text y="906.642" x="440.894" style="line-height:125%" font-size="23.024" font-weight="400" letter-spacing="0" word-spacing="0" fill="#4c4c4c" font-family="Sans" transform="translate(13.517 -812.34)"><tspan style="-inkscape-font-specification:Sans" y="906.642" x="440.894" font-size="13.248">x</tspan></text><text style="line-height:125%" x="447.636" y="908.529" font-size="23.024" font-weight="400" letter-spacing="0" word-spacing="0" fill="#4c4c4c" font-family="Sans" transform="translate(13.517 -812.34)"><tspan x="447.636" y="908.529" style="-inkscape-font-specification:Sans" font-size="7.691">2</tspan></text><path d="m 84.216413,81.657973 -12.616801,0 6.3084,-10.926471 z" transform="matrix(.717 0 0 .717 392.495 35.266)" fill="none" stroke="#4c4c4c" stroke-width="1.5"/><path d="m 433.19616,912.36556 14.55373,0" fill="none" stroke="#4c4c4c" stroke-width=".829" transform="translate(13.517 -812.34)"/><path transform="matrix(0 .26547 .26547 0 442.06 92.803)" d="m 35.55091,23.268327 -16.806124,0 8.403062,-14.5545304 z" fill="#4c4c4c"/><path d="m 450.26367,910.11851 0,4.47377" fill="none" stroke="#4c4c4c" stroke-width=".507" transform="translate(13.517 -812.34)"/><path d="m 35.55091,23.268327 -16.806124,0 8.403062,-14.5545304 z" transform="matrix(0 .26547 -.26547 0 465.85 92.803)" fill="#4c4c4c"/><path d="m 430.60682,910.05561 0,4.53329" fill="none" stroke="#4c4c4c" stroke-width=".513" transform="translate(13.517 -812.34)"/><text style="line-height:125%" x="578.123" y="847.521" font-size="23.024" font-weight="400" letter-spacing="0" word-spacing="0" fill="#4c4c4c" font-family="Sans" transform="translate(13.517 -812.34)"><tspan x="578.123" y="847.521" style="-inkscape-font-specification:Sans" font-size="13.248">x</tspan></text><text y="849.409" x="584.866" style="line-height:125%" font-size="23.024" font-weight="400" letter-spacing="0" word-spacing="0" fill="#4c4c4c" font-family="Sans" transform="translate(13.517 -812.34)"><tspan style="-inkscape-font-specification:Sans" y="849.409" x="584.866" font-size="7.691">n</tspan></text><path transform="matrix(.717 0 0 .717 529.724 -23.854)" d="m 84.216413,81.657973 -12.616801,0 6.3084,-10.926471 z" fill="none" stroke="#4c4c4c" stroke-width="1.5"/><path d="m 570.42564,853.24534 14.55373,0" fill="none" stroke="#4c4c4c" stroke-width=".829" transform="translate(13.517 -812.34)"/><path d="m 35.55091,23.268327 -16.806124,0 8.403062,-14.5545304 z" transform="matrix(0 .26547 .26547 0 579.29 33.682)" fill="#4c4c4c"/><path d="m 587.49316,850.9983 0,4.47377" fill="none" stroke="#4c4c4c" stroke-width=".507" transform="translate(13.517 -812.34)"/><path transform="matrix(0 .26547 -.26547 0 603.08 33.682)" d="m 35.55091,23.268327 -16.806124,0 8.403062,-14.5545304 z" fill="#4c4c4c"/><path d="m 567.83631,850.9354 0,4.5333" fill="none" stroke="#4c4c4c" stroke-width=".513" transform="translate(13.517 -812.34)"/></svg>